<?xml version="1.0" encoding="utf-8"?>
<!-- Generator: Adobe Illustrator 19.0.0, SVG Export Plug-In . SVG Version: 6.00 Build 0)  -->
<svg version="1.1" id="Layer_1" xmlns="http://www.w3.org/2000/svg" xmlns:xlink="http://www.w3.org/1999/xlink" x="0px" y="0px"
	 viewBox="0 0 141.7 283.5" style="enable-background:new 0 0 141.7 283.5;" xml:space="preserve">
<style type="text/css">
	.st0{fill:#92C24E;}
</style>
<path id="XMLID_1_" class="st0" d="M103.1,209l-34.5,59.7c-0.6,1-2,1-2.6,0L31.5,209c-0.6-1,0.1-2.2,1.3-2.2h69
	C102.9,206.8,103.6,208,103.1,209z"/>
<path id="XMLID_2_" class="st0" d="M67.3,247L67.3,247c-4,0-7.2-3.2-7.2-7.2V77c0-4,3.2-7.2,7.2-7.2h0c4,0,7.2,3.2,7.2,7.2v162.9
	C74.4,243.8,71.2,247,67.3,247z"/>
<circle id="XMLID_3_" class="st0" cx="67.3" cy="54" r="7.2"/>
<circle id="XMLID_5_" class="st0" cx="67.3" cy="24.3" r="7.2"/>
</svg>
