<?xml version="1.0" encoding="utf-8"?>
<!-- Generator: Adobe Illustrator 19.0.0, SVG Export Plug-In . SVG Version: 6.00 Build 0)  -->
<svg version="1.1" id="Layer_1" xmlns="http://www.w3.org/2000/svg" xmlns:xlink="http://www.w3.org/1999/xlink" x="0px" y="0px"
	 viewBox="121 -50.5 384 384" style="enable-background:new 121 -50.5 384 384;" xml:space="preserve">
<style type="text/css">
	.st0{fill:#4F4F4F;}
</style>
<path class="st0" d="M464.6,50.5c-8,3.8-11.3,13.4-7.4,21.4C467.7,93.6,473,117,473,141.5c0,88.2-71.8,160-160,160
	s-160-71.8-160-160s71.8-160,160-160c36.6,0,70.9,11.9,99.3,34.5c6.9,5.5,17,4.4,22.5-2.6c5.5-6.9,4.4-17-2.6-22.5
	c-33.7-26.7-76-41.5-119.2-41.5c-105.9,0-192,86.1-192,192s86.1,192,192,192s192-86.1,192-192c0-29.3-6.4-57.4-19-83.5
	C482.1,50,472.5,46.6,464.6,50.5z"/>
<path class="st0" d="M313,13.5c-8.8,0-16,7.2-16,16v112c0,8.8,7.2,16,16,16h80c8.8,0,16-7.2,16-16s-7.2-16-16-16h-64v-96
	C329,20.6,321.8,13.5,313,13.5z"/>
</svg>
