<?xml version="1.0" encoding="utf-8"?>
<!-- Generator: Adobe Illustrator 19.0.0, SVG Export Plug-In . SVG Version: 6.00 Build 0)  -->
<svg version="1.1" id="Layer_1" xmlns="http://www.w3.org/2000/svg" xmlns:xlink="http://www.w3.org/1999/xlink" x="0px" y="0px"
	 viewBox="-49 141 512 512" style="enable-background:new -49 141 512 512;" xml:space="preserve">
<style type="text/css">
	.st0{fill:none;}
	.st1{enable-background:new    ;}
	.st2{fill:#165412;}
	.st3{fill:#92C24D;}
</style>
<g id="XMLID_1_">
	<rect x="38.4" y="216.3" class="st0" width="462.4" height="446.2"/>
</g>
<g id="XMLID_2_" class="st1">
	<path class="st2" d="M76.9,566.8v-326h117.5c17.3,0,33.6,1.7,48.8,5c15.2,3.3,28.4,8.9,39.8,16.8c11.3,7.8,20.3,18.3,27,31.3
		s10,29.2,10,48.5c0,24-5.3,43.8-15.8,59.3s-24.6,27.1-42.3,34.8l74,130.5h-82.5l-62.5-117.5h-40.5V567H76.9V566.8z M150.4,390.8h38
		c19.3,0,34.1-4.1,44.3-12.3c10.2-8.2,15.3-20.3,15.3-36.3s-5.1-27.2-15.3-33.5s-24.9-9.5-44.3-9.5h-38V390.8z"/>
</g>
<g id="XMLID_42_">
	<g id="XMLID_43_">
		<path class="st3" d="M212.8,253.9l-75.7-83v49.5H121c-69,0-86.7,58.4-86.7,108.3V372l7.1-24.8c11.8-31.6,22-59.8,91.1-59.8h4.6
			v49.5L212.8,253.9z"/>
	</g>
</g>
</svg>
