<?xml version="1.0" encoding="utf-8"?>
<!-- Generator: Adobe Illustrator 19.0.0, SVG Export Plug-In . SVG Version: 6.00 Build 0)  -->
<svg version="1.1" id="Capa_1" xmlns="http://www.w3.org/2000/svg" xmlns:xlink="http://www.w3.org/1999/xlink" x="0px" y="0px"
	 viewBox="-49 141 512 512" style="enable-background:new -49 141 512 512;" xml:space="preserve">
<style type="text/css">
	.st0{fill:#165412;}
	.st1{fill:#92C24D;}
</style>
<path id="XMLID_625_" class="st0" d="M452.8,510.1H340.9c4.6-7,7.2-15.3,7.2-24.2c0-14.2-6.7-26.8-17.1-34.9v-32.8l5,5
	c2,2,4.5,2.9,7.1,2.9s5.1-1,7.1-2.9l39.3-39.3c1.9-1.9,2.9-4.4,2.9-7.1c0-2.7-1.1-5.2-2.9-7.1l-39.3-39.3c-1.9-1.9-4.4-2.9-7.1-2.9
	s-5.2,1.1-7.1,2.9l-5,5V195c0-5.5-4.5-10-10-10h-31.9v-7.9c0-19.9-16.2-36.1-36.1-36.1s-36.1,16.2-36.1,36.1v7.9h-39.9v-7.9
	c0-19.9-16.2-36.1-36.1-36.1s-36.1,16.2-36.1,36.1v7.9H65.1v-7.9c0-19.9-16.2-36.1-36.1-36.1s-36.1,16.2-36.1,36.1v7.9H-39
	c-5.5,0-10,4.5-10,10v448c0,5.5,4.5,10,10,10H96c5.5,0,10-4.5,10-10s-4.5-10-10-10H-29V205h74.1v7.9c0,8.9-7.2,16.1-16.1,16.1
	c-5.5,0-10,4.5-10,10s4.5,10,10,10c19.9,0,36.1-16.2,36.1-36.1V205h92v7.9c0,8.9-7.2,16.1-16.1,16.1c-5.5,0-10,4.5-10,10
	s4.5,10,10,10c19.9,0,36.1-16.2,36.1-36.1V205h92v7.9c0,8.9-7.2,16.1-16.1,16.1c-5.5,0-10,4.5-10,10s4.5,10,10,10
	c19.9,0,36.1-16.2,36.1-36.1V205H311v150.5l-14.3,14.3c-3.9,3.9-3.9,10.2,0,14.1l14.3,14.3v44.1c-2.3-0.4-4.6-0.6-7-0.6
	c-24.4,0-44.2,19.8-44.2,44.2c0,8.9,2.7,17.2,7.2,24.2h-60c-5.5,0-10,4.5-10,10c0,47.6,25.1,89.4,62.8,112.9H186
	c-5.5,0-10,4.5-10,10c0,5.5,4.5,10,10,10h143.9c73.3,0,132.9-59.6,132.9-132.9C462.8,514.6,458.3,510.1,452.8,510.1L452.8,510.1z
	 M12.9,185v-7.9c0-8.9,7.2-16.1,16.1-16.1s16.1,7.2,16.1,16.1v7.9H12.9z M124.9,185v-7.9c0-8.9,7.2-16.1,16.1-16.1
	s16.1,7.2,16.1,16.1v7.9H124.9z M236.9,185v-7.9c0-8.9,7.2-16.1,16.1-16.1s16.1,7.2,16.1,16.1v7.9H236.9z M343.1,351.7l25.2,25.2
	l-25.2,25.2l-25.2-25.2L343.1,351.7z M279.8,485.9c0-13.3,10.9-24.2,24.2-24.2s24.2,10.9,24.2,24.2s-10.9,24.2-24.2,24.2
	S279.8,499.3,279.8,485.9z M329.9,633c-58.9,0-107.4-45.3-112.4-102.9h224.9C437.2,587.7,388.7,633,329.9,633z"/>
<path id="XMLID_633_" class="st1" d="M370,474.2c10.3,10.3,24,16,38.5,16s28.2-5.7,38.5-16s16-24,16-38.5s-5.7-28.2-16-38.5
	c-3.9-3.9-10.2-3.9-14.1,0L370,460C366.1,463.9,366.1,470.3,370,474.2z M438.9,419.4c7,13,5,29.7-6,40.6c-11,11-27.6,13-40.6,6
	L438.9,419.4z"/>
<path id="XMLID_636_" class="st1" d="M226.8,333.1c-5.5,0-10,4.5-10,10v3.9c-6.6,2-12.6,5.8-17.1,11.3c-6.7,8.1-9.5,18.7-7.5,29
	l9.9,53.2c2.2,11.9,12.6,20.5,24.7,20.5s22.5-8.6,24.7-20.5l9.9-53.2c1.9-10.3-0.8-20.9-7.5-29c-4.5-5.5-10.5-9.3-17.1-11.3v-3.9
	C236.8,337.6,232.3,333.1,226.8,333.1L226.8,333.1z M238.6,371.1c2.9,3.5,4.1,8.1,3.3,12.6l-9.9,53.2c-0.5,2.4-2.6,4.2-5.1,4.2
	s-4.6-1.8-5.1-4.2l-9.9-53.2c-0.8-4.5,0.4-9.1,3.3-12.6c2.9-3.5,7.2-5.5,11.7-5.5S235.7,367.6,238.6,371.1L238.6,371.1z"/>
<path id="XMLID_637_" class="st1" d="M32.1,303.6c-1.9-1.9-4.4-2.9-7.1-2.9s-5.2,1.1-7.1,2.9c-1.9,1.9-2.9,4.4-2.9,7.1
	s1.1,5.2,2.9,7.1c1.9,1.9,4.4,2.9,7.1,2.9s5.2-1.1,7.1-2.9c1.9-1.9,2.9-4.4,2.9-7.1S33.9,305.5,32.1,303.6z"/>
<path id="XMLID_638_" class="st1" d="M163.1,300.7H74.7c-5.5,0-10,4.5-10,10c0,5.5,4.5,10,10,10h88.4c5.5,0,10-4.5,10-10
	C173.1,305.1,168.6,300.7,163.1,300.7z"/>
<path id="XMLID_639_" class="st0" d="M32.1,375c-1.9-1.9-4.4-2.9-7.1-2.9s-5.2,1.1-7.1,2.9c-1.9,1.9-2.9,4.4-2.9,7.1
	c0,2.6,1.1,5.2,2.9,7.1c1.9,1.9,4.4,2.9,7.1,2.9s5.2-1.1,7.1-2.9c1.9-1.9,2.9-4.4,2.9-7.1C35,379.5,33.9,376.9,32.1,375z"/>
<path id="XMLID_640_" class="st0" d="M163.1,372.1H74.7c-5.5,0-10,4.5-10,10s4.5,10,10,10h88.4c5.5,0,10-4.5,10-10
	S168.6,372.1,163.1,372.1z"/>
<path id="XMLID_641_" class="st1" d="M32.1,446.5c-1.9-1.9-4.4-2.9-7.1-2.9s-5.2,1.1-7.1,2.9c-1.9,1.9-2.9,4.5-2.9,7.1
	s1.1,5.2,2.9,7.1c1.9,1.9,4.4,2.9,7.1,2.9s5.2-1.1,7.1-2.9c1.9-1.9,2.9-4.4,2.9-7.1S33.9,448.3,32.1,446.5z"/>
<path id="XMLID_642_" class="st1" d="M163.1,443.6H74.7c-5.5,0-10,4.5-10,10s4.5,10,10,10h88.4c5.5,0,10-4.5,10-10
	S168.6,443.6,163.1,443.6z"/>
<path id="XMLID_643_" class="st0" d="M25,515c-2.6,0-5.2,1.1-7.1,2.9S15,522.4,15,525s1.1,5.2,2.9,7.1c1.9,1.9,4.4,2.9,7.1,2.9
	s5.2-1.1,7.1-2.9c1.9-1.9,2.9-4.4,2.9-7.1s-1.1-5.2-2.9-7.1C30.2,516.1,27.6,515,25,515z"/>
<path id="XMLID_644_" class="st0" d="M163.1,515H74.7c-5.5,0-10,4.5-10,10s4.5,10,10,10h88.4c5.5,0,10-4.5,10-10
	S168.6,515,163.1,515z"/>
<path id="XMLID_645_" class="st0" d="M141,633c-2.6,0-5.2,1.1-7.1,2.9s-2.9,4.4-2.9,7.1s1.1,5.2,2.9,7.1c1.9,1.9,4.4,2.9,7.1,2.9
	s5.2-1.1,7.1-2.9c1.9-1.9,2.9-4.4,2.9-7.1s-1.1-5.2-2.9-7.1C146.2,634.1,143.6,633,141,633z"/>
</svg>
