<?xml version="1.0" encoding="utf-8"?>
<!-- Generator: Adobe Illustrator 19.0.0, SVG Export Plug-In . SVG Version: 6.00 Build 0)  -->
<svg version="1.1" id="Layer_1" xmlns="http://www.w3.org/2000/svg" xmlns:xlink="http://www.w3.org/1999/xlink" x="0px" y="0px"
	 viewBox="164 -93.9 469.3 469.3" style="enable-background:new 164 -93.9 469.3 469.3;" xml:space="preserve">
<style type="text/css">
	.st0{fill:#4F4F4F;}
</style>
<g>
	<g>
		<g>
			<path class="st0" d="M292,130.1c0-5.9-4.8-10.7-10.7-10.7s-10.7,4.8-10.7,10.7c0,28,30.9,66.5,34.4,70.8c2.1,2.6,5.2,3.9,8.3,3.9
				c2.4,0,4.8-0.8,6.8-2.4c4.6-3.7,5.2-10.5,1.5-15C310.1,173.4,292,145.6,292,130.1z"/>
			<path class="st0" d="M516,119.5c-5.9,0-10.7,4.8-10.7,10.7c0,15.4-18.1,43.3-29.6,57.2c-3.7,4.6-3.1,11.3,1.5,15
				c2,1.6,4.4,2.4,6.8,2.4c3.1,0,6.1-1.3,8.3-3.9c3.5-4.3,34.4-42.8,34.4-70.8C526.7,124.2,521.9,119.5,516,119.5z"/>
			<path class="st0" d="M398.7,119.5c-5.9,0-10.7,4.8-10.7,10.7v64c0,5.9,4.8,10.7,10.7,10.7s10.7-4.8,10.7-10.7v-64
				C409.3,124.2,404.6,119.5,398.7,119.5z"/>
			<path class="st0" d="M516-51.2c-6.5,0-13.2,0.9-20.2,2.2c-23.5-27.4-58.3-44.8-97.1-44.8S325.1-76.4,301.6-49
				c-7-1.3-13.8-2.2-20.2-2.2C216.6-51.2,164,1.4,164,66.1c0,44.3,25,84.6,64.3,104.6L228,331.9c0,11.6,4.5,22.6,12.7,30.8
				c8.2,8.2,19.2,12.8,30.8,12.8h254.3c24,0,43.5-19.5,43.5-43.5V170.5c39.1-20,64-60.2,64-104.4C633.3,1.4,580.7-51.2,516-51.2z
				 M548,331.9c0,12.2-10,22.2-22.2,22.2H271.6c-5.9,0-11.5-2.3-15.7-6.5c-4.2-4.2-6.5-9.8-6.5-15.7l0.1-41.8H548V331.9z
				 M554.6,153.9c-0.6,0.2-1.1,0.5-1.6,0.8c-1.3,0.8-2.4,1.9-3.3,3.2c-0.8,1.3-1.4,2.7-1.6,4.3c-0.1,0.6-0.1,1.2-0.1,1.8v104.8
				H249.5l0.1-104.6c0-0.6,0-1.2-0.1-1.8c-0.2-1.6-0.8-3.1-1.7-4.4c-0.8-1.2-1.9-2.3-3.2-3.1c-0.5-0.3-1.1-0.6-1.7-0.9
				c-35-15.3-57.6-49.8-57.6-87.9c0-52.9,43.1-96,96-96c2.1,0,4.3,0.3,6.4,0.4c-10.8,18.8-17.1,40.4-17.1,63.6
				c0,5.9,4.8,10.7,10.7,10.7S292,40,292,34.1c0-58.8,47.9-106.7,106.7-106.7S505.3-24.7,505.3,34.1c0,5.9,4.8,10.7,10.7,10.7
				s10.7-4.8,10.7-10.7c0-23.2-6.3-44.8-17.1-63.6c2.1-0.2,4.3-0.4,6.4-0.4c52.9,0,96,43.1,96,96C612,104.1,589.5,138.6,554.6,153.9
				z"/>
		</g>
	</g>
</g>
</svg>
