<?xml version="1.0" encoding="utf-8"?>
<!-- Generator: Adobe Illustrator 19.0.0, SVG Export Plug-In . SVG Version: 6.00 Build 0)  -->
<svg version="1.1" id="Capa_1" xmlns="http://www.w3.org/2000/svg" xmlns:xlink="http://www.w3.org/1999/xlink" x="0px" y="0px"
	 viewBox="-49 141 512 512" style="enable-background:new -49 141 512 512;" xml:space="preserve">
<style type="text/css">
	.st0{fill:#165412;}
	.st1{fill:#92C24D;}
</style>
<path class="st0" d="M304.1,215.8H171.3c-5.5,0-10-4.5-10-10s4.5-10,10-10h132.8c5.5,0,10,4.5,10,10S309.6,215.8,304.1,215.8z"/>
<path class="st0" d="M329.5,514.5H143.9c-5.5,0-10-4.5-10-10v-45c0-5.5,4.5-10,10-10h185.6c5.5,0,10,4.5,10,10v45
	C339.5,510,335,514.5,329.5,514.5z M153.9,494.5h165.6v-25H153.9V494.5z"/>
<path class="st0" d="M400.2,459.6c0-5.5-4.5-10-10-10h0c-5.5,0-10,4.5-10,10l0.2,95.5H93V161h267.7c10.9,0,19.7,8.8,19.7,19.7
	l-0.2,188.5c0,5.5,4.5,10,10,10h0c5.5,0,10-4.5,10-10l0.2-188.5c0-21.9-17.8-39.7-39.7-39.7H53.3c-21.9,0-39.7,17.8-39.7,39.7v414.1
	c0,21.9,17.8,39.7,39.7,39.7h226.6v8.5c0,3.5,1.8,6.7,4.8,8.6c3,1.8,6.7,1.9,9.8,0.3l23.9-12.5l23.9,12.5c1.5,0.8,3,1.1,4.6,1.1
	c1.8,0,3.6-0.5,5.2-1.4c3-1.8,4.8-5.1,4.8-8.6v-8.5h33.3c5.5,0,10-4.5,10-10L400.2,459.6z M53.3,161H73v394.1H53.3
	c-7.2,0-13.9,1.9-19.7,5.2V180.7C33.6,169.8,42.5,161,53.3,161z M53.3,614.5c-10.9,0-19.7-8.8-19.7-19.7c0-10.9,8.8-19.7,19.7-19.7
	h226.6v39.4L53.3,614.5z M337.1,626.5l-13.9-7.3c-1.5-0.8-3-1.1-4.6-1.1s-3.2,0.4-4.6,1.1l-13.9,7.3v-51.3h37.2L337.1,626.5
	L337.1,626.5z M380.4,614.5h-23.3v-39.4h23.3V614.5z"/>
<path class="st1" d="M339.5,315.2c0-23.8-19.4-43.1-43.1-43.1c-2.8,0-5.5,0.3-8.2,0.8c-9.7-19.1-29.3-31.4-51.5-31.4
	s-41.7,12.3-51.5,31.4c-2.7-0.5-5.4-0.8-8.2-0.8c-23.8,0-43.1,19.4-43.1,43.1c0,20.4,14.2,37.6,33.3,42v54c0,5.5,4.5,10,10,10h118.9
	c5.5,0,10-4.5,10-10v-54C325.2,352.8,339.5,335.6,339.5,315.2L339.5,315.2z M187.2,401.2v-44.1c6.7-1.6,12.9-4.8,18.1-9.4
	c9.3,6,20.1,9.2,31.4,9.2s22.1-3.2,31.4-9.2c5.2,4.5,11.4,7.7,18.1,9.4v44.1L187.2,401.2L187.2,401.2z M296.3,338.4
	c-7.5,0-14.6-3.7-18.9-9.9c-1.7-2.4-4.3-3.9-7.1-4.2c-0.4,0-0.7-0.1-1-0.1c-2.5,0-4.9,0.9-6.8,2.7c-7,6.5-16.1,10.1-25.7,10.1
	s-18.7-3.6-25.7-10.1c-2.1-2-5-2.9-7.9-2.6c-2.9,0.3-5.5,1.8-7.1,4.2c-4.3,6.2-11.4,9.9-18.9,9.9c-12.8,0-23.1-10.4-23.1-23.1
	c0-12.8,10.4-23.1,23.1-23.1c3.4,0,6.7,0.7,9.7,2.1c2.6,1.2,5.6,1.2,8.3,0.1c2.6-1.2,4.6-3.4,5.5-6.2c4.9-16,19.4-26.7,36.1-26.7
	c16.7,0,31.2,10.7,36.1,26.7c0.8,2.8,2.9,5,5.5,6.2c2.6,1.2,5.7,1.1,8.3-0.1c3.1-1.4,6.3-2.1,9.7-2.1c12.8,0,23.1,10.4,23.1,23.1
	C319.5,328,309.1,338.4,296.3,338.4L296.3,338.4z"/>
<g>
	<path class="st0" d="M390.2,424.6c-4.2,0-8-2.7-9.4-6.6c-1.4-3.9-0.2-8.3,2.9-11c3.3-2.8,8.1-3.1,11.7-0.9
		c3.5,2.2,5.3,6.4,4.5,10.4C399.1,421.2,394.9,424.6,390.2,424.6z"/>
</g>
</svg>
