<?xml version="1.0" encoding="utf-8"?>
<!-- Generator: Adobe Illustrator 19.0.0, SVG Export Plug-In . SVG Version: 6.00 Build 0)  -->
<svg version="1.1" id="Capa_1" xmlns="http://www.w3.org/2000/svg" xmlns:xlink="http://www.w3.org/1999/xlink" x="0px" y="0px"
	 viewBox="185 -114.5 512 512" style="enable-background:new 185 -114.5 512 512;" xml:space="preserve">
<style type="text/css">
	.st0{fill:#4F4F4F;}
</style>
<g>
	<g>
		<path class="st0" d="M696.3,91.3c-0.7-7.4-6.6-13.3-14.1-14.1c-4.2-0.4-102.8-9.1-160.3,48.4c-12.5,12.5-21.8,26.9-28.8,41.8
			c-11.5-47.2-32-86.3-60.2-114.5c-34.7-34.7-86.1-57.8-148.6-66.7c-46.6-6.7-82.8-3.3-84.3-3.2c-7.4,0.7-13.3,6.6-14.1,14.1
			c-0.1,1.5-3.5,37.8,3.2,84.3c9,62.6,32,114,66.7,148.6c34.7,34.7,86.1,57.8,148.6,66.7c23,3.3,43.6,4.2,58.6,4.2
			c13.6,0,33.5-0.3,42.6-0.3c32,0,98.8-5.7,142.2-49.1C705.4,194.1,696.7,95.4,696.3,91.3z M355.5,130.4c-6.1-6.1-16-6.1-22.1,0
			c-6.1,6.1-6.1,16,0,22.1l116.9,116.9c-45.1-1.5-122.8-11.9-172.4-61.5c-59.1-59.1-62.4-158.7-61.6-194.5
			c35.9-0.9,135.3,2.3,194.5,61.6c49.4,49.4,59.9,127.2,61.4,172.3L355.5,130.4z M625.9,229.5c-27.5,27.5-68.9,36.3-98.7,38.9
			l68.8-68.8c6.1-6.1,6.1-16,0-22.1c-6.1-6.1-16-6.1-22.1,0l-68.8,68.8c2.5-29.7,11.3-71.1,38.9-98.7
			c35.8-35.8,95.1-39.9,121.7-39.8C665.8,134.4,661.7,193.7,625.9,229.5z"/>
	</g>
</g>
</svg>
